<mxfile host="app.diagrams.net" modified="2023-08-04T07:53:50.638Z" agent="Mozilla/5.0 (Windows NT 10.0; Win64; x64) AppleWebKit/537.36 (KHTML, like Gecko) Chrome/115.0.0.0 Safari/537.36 Edg/115.0.1901.188" version="21.6.6" etag="z9EpZz-zoLqSfklJu2xr" type="github">
  <diagram name="Page-1" id="7r2LMa_2IDXmGX3YZj6D">
    <mxGraphModel>
      <root>
        <mxCell id="0" />
        <mxCell id="1" parent="0" />
      </root>
    </mxGraphModel>
  </diagram>
</mxfile>
